<?xml version="1.0" encoding="UTF-8"?><svg id="Layer_2" xmlns="http://www.w3.org/2000/svg" xmlns:xlink="http://www.w3.org/1999/xlink" viewBox="0 0 465.29 465.3"><defs><style>.cls-1{fill:url(#linear-gradient);}</style><linearGradient id="linear-gradient" x1="517.55" y1="490.54" x2="33.65" y2="52.53" gradientUnits="userSpaceOnUse"><stop offset="0" stop-color="#27ffff"/><stop offset="1" stop-color="#f000ac"/></linearGradient></defs><g id="Layer_1-2"><g><path class="cls-1" d="M245.76,293.58c0,.17,.03,.34,.03,.52v77.1c0-.09-.03-.17-.03-.26v-77.36Zm24.31,171.72c-13.39,0-24.27-10.89-24.27-24.27v-146.94c0-.23-.03-.45-.04-.68-.01-1.59-.17-3.15-.28-4.71-.06-.9-.06-1.81-.16-2.7-.19-1.75-.51-3.46-.82-5.17-.13-.71-.2-1.44-.34-2.14-.39-1.86-.91-3.67-1.44-5.47-.15-.52-.25-1.06-.42-1.58-.62-1.95-1.35-3.84-2.12-5.71-.14-.34-.25-.71-.39-1.05-.86-2.02-1.84-3.98-2.87-5.91-.09-.17-.16-.36-.26-.53-12.58-23-36.92-38.68-64.9-38.89-.19,0-.38-.03-.57-.03H24.27c-10.04,0-18.67-6.12-22.36-14.83-1.23-2.9-1.91-6.09-1.91-9.44V24.27c0-3.35,.68-6.54,1.91-9.44C5.6,6.12,14.23,0,24.27,0H195.22c13.39,0,24.27,10.89,24.27,24.27V171.21c0,.23,.03,.45,.04,.68,.01,1.59,.17,3.14,.28,4.71,.06,.9,.06,1.82,.16,2.71,.19,1.74,.51,3.44,.82,5.15,.13,.71,.2,1.45,.35,2.16,.38,1.81,.89,3.58,1.4,5.35,.17,.56,.28,1.15,.45,1.71,.61,1.92,1.33,3.79,2.09,5.64,.15,.37,.26,.76,.42,1.12,.86,2,1.82,3.94,2.84,5.85,.1,.19,.18,.4,.29,.6,1.11,2.03,2.32,3.99,3.6,5.9,.04,.06,.07,.12,.11,.18,13.32,19.64,35.75,32.62,61.18,32.81,.19,0,.38,.03,.57,.03h146.93c8.79,0,16.49,4.69,20.75,11.69,1.42,2.34,2.46,4.93,3.03,7.69,.32,1.58,.49,3.21,.49,4.89v170.96c0,1.67-.17,3.31-.49,4.89-.57,2.76-1.6,5.36-3.03,7.69-4.26,7.01-11.97,11.7-20.75,11.7h-170.95Z"/><path d="M365.74,119.1h75.07c10.77,0,19.53-8.77,19.53-19.54V24.48c0-10.77-8.77-19.54-19.53-19.54h-75.07c-10.77,0-19.53,8.77-19.53,19.54V99.56c0,10.77,8.77,19.54,19.53,19.54Zm6.76-83.16c0-2.59,2.1-4.69,4.69-4.69h52.17c2.59,0,4.69,2.1,4.69,4.69v52.18c0,2.59-2.1,4.69-4.69,4.69h-52.17c-2.59,0-4.69-2.1-4.69-4.69V35.93Z"/><path d="M99.56,346.21H24.49c-10.77,0-19.53,8.77-19.53,19.54v75.08c0,10.77,8.77,19.54,19.53,19.54H99.56c10.77,0,19.53-8.77,19.53-19.54v-75.08c0-10.77-8.77-19.54-19.53-19.54Zm-6.76,83.16c0,2.59-2.1,4.69-4.69,4.69H35.94c-2.59,0-4.69-2.1-4.69-4.69v-52.18c0-2.59,2.1-4.69,4.69-4.69h52.17c2.59,0,4.69,2.1,4.69,4.69v52.18Z"/></g></g></svg>